<?xml version="1.0" encoding="UTF-8" standalone="no"?>
<svg id="svg2" xmlns:rdf="http://www.w3.org/1999/02/22-rdf-syntax-ns#" xmlns="http://www.w3.org/2000/svg" height="91.049mm" width="188.17mm" version="1.1" xmlns:cc="http://creativecommons.org/ns#" xmlns:dc="http://purl.org/dc/elements/1.1/" viewBox="0 0 666.75302 322.61416">
<g id="layer1" transform="translate(1554.7 369.19)">
<g id="g4142">
<path id="path4262" d="m-1167.4-347.59 42.84-0.14993 0.1489 21.458 21.308 0.14993 0.2233 21.307 21.307 0.14994 0.2233 21.383 21.383 0.14994-0.1489 21.382h-107.29v-85.83zm-64.597-0.0751h42.914l-0.074 85.905h-42.839v-85.905z" fill="#0ff"/>
<path id="path4268" d="m-1081.5-304.67 21.533 0.0751v21.458l-21.308-0.14994-0.2233-21.383zm-21.532-21.458h21.532v21.458l-21.307-0.14994-0.2233-21.307zm-21.458-21.608 21.533 0.0751-0.074 21.533-21.308-0.14993-0.1488-21.458zm-150.5-21.458h150.5v21.458l-42.84 0.14993v85.83h107.29l0.1489-21.382 21.458 0.0752 0.1489 21.307 150.43 0.14994-0.0744 128.97h-64.372l-0.22331-21.308-21.158-0.37514-0.37501-21.232-85.681 0.075-0.375 21.157-21.158 0.37513-0.1489 21.308h-301.08l-0.2233-21.308-21.158-0.37513-0.375-21.232-85.68 0.075-0.375 21.157-21.232 0.37514-0.1489 21.308h-42.915v-128.97l279.55-0.22508 0.074-107.36m43.066 21.533v85.905h42.84l0.074-85.905h-42.915z" fill="#808080"/>
<path id="path4286" d="m-1038.4-132.56h42.916l0.0744 42.915-42.99 0.07504v-42.99zm-430.28 0h42.99v42.915l-42.915 0.07504-0.074-42.99zm408.89-42.914 85.681-0.075 0.37501 21.232 21.158 0.37513 0.22331 21.308-0.14888 64.523-21.308 0.22508-0.22331 21.308h-85.831l-0.2233-21.383-21.308-0.22508-0.074-64.448 0.1489-21.308 21.158-0.37513 0.375-21.157m21.458 21.457-0.074 21.458h-21.458v42.915l21.458 0.07504v21.458h42.915l0.0744-21.533h21.458v-42.84l-21.533-0.075v-21.458zm-451.66-21.457 85.68-0.075 0.3751 21.232 21.158 0.37513 0.2233 21.308-0.2233 64.523-21.308 0.22508-0.2233 21.308h-85.831l-0.2233-21.383-21.308-0.22508-0.074-64.448 0.1489-21.308 21.232-0.37513 0.3753-21.157m21.382 21.457-0.074 21.458h-21.458v42.915l21.533 0.07504v21.458h42.84l0.074-21.533h21.458v-42.84l-21.458-0.075v-21.458z"/>
<path id="path4292" d="m-1038.4-89.57 42.99-0.07504-0.0744 21.533h-42.915v-21.458zm-430.2 0 42.915-0.07504-0.074 21.533h-42.84v-21.458zm473.12-42.99 21.533 0.075v42.84h-21.458l-0.0744-42.915zm-64.373 0h21.458v42.99l-21.458-0.07504zm-365.83 0 21.457 0.075v42.84h-21.457zm-64.448 0h21.458l0.074 42.99-21.533-0.07504v-42.915zm451.81-21.458h42.84v21.458h-42.916l0.074-21.458zm-430.28 0h42.915v21.458h-42.99l0.074-21.458z" fill="#c0c0c0"/>
</g>
</g>
</svg>
